# xmcd
#
# Track frame offsets:
#	150
#	18322
#	33665
#	50032
#	63630
#	78545
#	102070
#	116515
#	133745
#	151197
#	170595
#	188565
#	204572
#	224150
#	240232
#
# Disc length: 3414 seconds
#
# Revision: 1
# Processed by: cddbd v1.5.2PL0 Copyright (c) Steve Scherf et al.
# Submitted via: audiograbber 1.83.01
#
DISCID=d20d540f
DTITLE=Various Artist - SC8294 Country Hits Vol. 63
DYEAR=1900
DGENRE=Karaoke
TTITLE0=Billy Dean - That Girl's Been Spyin' On Me
TTITLE1=Ronna Reeves - My Heart Wasn't In It
TTITLE2=Charlie Major - I Do It For The Money
TTITLE3=Confederate Railroad - See Ya
TTITLE4=Paul Jefferson - Check Please
TTITLE5=Mark Knopfler - Nobody's Got The Gun
TTITLE6=Rob Crosby - Fallin' In And Crawlin' Out
TTITLE7=David Kersh - Breaking Hearts And Taking Names
TTITLE8=Chely Wright - The Love He Left Behind
TTITLE9=Great Plains - Dancin' With The Wind
TTITLE10=Cracker - The Golden Age
TTITLE11=Tammy Graham - Tell Me Again
TTITLE12=Ty Herndon - Living In A Moment
TTITLE13=Pam Tillis - It's Lonley Out ThereTrack 14
TTITLE14=Lonestar - Runnin' Away With My Heart
EXTD=
EXTT0=
EXTT1=
EXTT2=
EXTT3=
EXTT4=
EXTT5=
EXTT6=
EXTT7=
EXTT8=
EXTT9=
EXTT10=
EXTT11=
EXTT12=
EXTT13=
EXTT14=
PLAYORDER=
